{
    "accessors": [
        {
            "bufferView": 0,
            "byteOffset": 0,
            "componentType": 5123,
            "count": 84,
            "type": "SCALAR",
            "max": [
                71
            ],
            "min": [
                0
            ]
        },
        {
            "bufferView": 1,
            "byteOffset": 0,
            "componentType": 5126,
            "count": 72,
            "type": "VEC3",
            "max": [
                5,
                2,
                6
            ],
            "min": [
                -5,
                -2,
                -6
            ],
            "name": "POSITION"
        },
        {
            "bufferView": 1,
            "byteOffset": 12,
            "componentType": 5126,
            "count": 72,
            "type": "VEC3",
            "max": [
                1.0000044107437134,
                1.0000044107437134,
                1.0000044107437134
            ],
            "min": [
                -1.0000044107437134,
                -1.0000044107437134,
                -1.0000044107437134
            ],
            "name": "NORMAL"
        },
        {
            "bufferView": 1,
            "byteOffset": 24,
            "componentType": 5126,
            "count": 72,
            "type": "VEC2",
            "max": [
                0.875,
                1
            ],
            "min": [
                0.125,
                0
            ],
            "name": "TEXCOORD_0"
        },
        {
            "bufferView": 0,
            "byteOffset": 168,
            "componentType": 5123,
            "count": 84,
            "type": "SCALAR",
            "max": [
                71
            ],
            "min": [
                0
            ]
        },
        {
            "bufferView": 2,
            "byteOffset": 0,
            "componentType": 5126,
            "count": 72,
            "type": "VEC3",
            "max": [
                3.5,
                2,
                6.299999713897705
            ],
            "min": [
                -3.5,
                -2,
                -6.299999713897705
            ],
            "name": "POSITION"
        },
        {
            "bufferView": 2,
            "byteOffset": 12,
            "componentType": 5126,
            "count": 72,
            "type": "VEC3",
            "max": [
                1.0000044107437134,
                1.0000044107437134,
                1.0000044107437134
            ],
            "min": [
                -1.0000044107437134,
                -1.0000044107437134,
                -1.0000044107437134
            ],
            "name": "NORMAL"
        },
        {
            "bufferView": 2,
            "byteOffset": 24,
            "componentType": 5126,
            "count": 72,
            "type": "VEC2",
            "max": [
                0.875,
                1
            ],
            "min": [
                0.125,
                0
            ],
            "name": "TEXCOORD_0"
        },
        {
            "bufferView": 0,
            "byteOffset": 336,
            "componentType": 5123,
            "count": 36,
            "type": "SCALAR",
            "max": [
                29
            ],
            "min": [
                0
            ]
        },
        {
            "bufferView": 3,
            "byteOffset": 0,
            "componentType": 5126,
            "count": 30,
            "type": "VEC3",
            "max": [
                3,
                1.5,
                3
            ],
            "min": [
                -3,
                -1.5,
                -3
            ],
            "name": "POSITION"
        },
        {
            "bufferView": 3,
            "byteOffset": 12,
            "componentType": 5126,
            "count": 30,
            "type": "VEC3",
            "max": [
                0.9578415155410767,
                1.0000044107437134,
                0.9578415155410767
            ],
            "min": [
                -0.9578415155410767,
                -1.0000044107437134,
                -0.9578415155410767
            ],
            "name": "NORMAL"
        },
        {
            "bufferView": 3,
            "byteOffset": 24,
            "componentType": 5126,
            "count": 30,
            "type": "VEC2",
            "max": [
                0.875,
                1
            ],
            "min": [
                0.125,
                0
            ],
            "name": "TEXCOORD_0"
        },
        {
            "bufferView": 0,
            "byteOffset": 408,
            "componentType": 5123,
            "count": 84,
            "type": "SCALAR",
            "max": [
                69
            ],
            "min": [
                0
            ]
        },
        {
            "bufferView": 4,
            "byteOffset": 0,
            "componentType": 5126,
            "count": 70,
            "type": "VEC3",
            "max": [
                0.75,
                0.75,
                3
            ],
            "min": [
                -0.75,
                -0.75,
                -5
            ],
            "name": "POSITION"
        },
        {
            "bufferView": 4,
            "byteOffset": 12,
            "componentType": 5126,
            "count": 70,
            "type": "VEC3",
            "max": [
                1.0000044107437134,
                1.0000044107437134,
                1.0000044107437134
            ],
            "min": [
                -1.0000044107437134,
                -1.0000044107437134,
                -1.0000044107437134
            ],
            "name": "NORMAL"
        },
        {
            "bufferView": 4,
            "byteOffset": 24,
            "componentType": 5126,
            "count": 70,
            "type": "VEC2",
            "max": [
                0.875,
                1
            ],
            "min": [
                0.125,
                0
            ],
            "name": "TEXCOORD_0"
        }
    ],
    "asset": {
        "generator": "Aspose.3D 23.11.1",
        "version": "2.0"
    },
    "buffers": [
        {
            "uri": "data:application/octet-stream;base64,",
            "byteLength": 9812
        }
    ],
    "bufferViews": [
        {
            "buffer": 0,
            "byteOffset": 0,
            "byteLength": 576,
            "target": 34963
        },
        {
            "buffer": 0,
            "byteOffset": 580,
            "byteLength": 2688,
            "byteStride": 32,
            "target": 34962
        },
        {
            "buffer": 0,
            "byteOffset": 3272,
            "byteLength": 2688,
            "byteStride": 32,
            "target": 34962
        },
        {
            "buffer": 0,
            "byteOffset": 5964,
            "byteLength": 1152,
            "byteStride": 32,
            "target": 34962
        },
        {
            "buffer": 0,
            "byteOffset": 7120,
            "byteLength": 2688,
            "byteStride": 32,
            "target": 34962
        }
    ],
    "materials": [
        {
            "name": "Material.001",
            "pbrMetallicRoughness": {
                "baseColorFactor": [
                    0.800000011920929,
                    0.800000011920929,
                    0.800000011920929,
                    1
                ],
                "metallicFactor": 0,
                "roughnessFactor": 0.5
            },
            "emissiveFactor": [
                0,
                0,
                0
            ],
            "alphaMode": "OPAQUE",
            "doubleSided": true
        },
        {
            "name": "Material.002",
            "pbrMetallicRoughness": {
                "baseColorFactor": [
                    0.800000011920929,
                    0.800000011920929,
                    0.800000011920929,
                    1
                ],
                "metallicFactor": 0,
                "roughnessFactor": 0.5
            },
            "emissiveFactor": [
                0,
                0,
                0
            ],
            "alphaMode": "OPAQUE",
            "doubleSided": true
        }
    ],
    "meshes": [
        {
            "primitives": [
                {
                    "attributes": {
                        "POSITION": 1,
                        "NORMAL": 2,
                        "TEXCOORD_0": 3
                    },
                    "indices": 0,
                    "material": 0,
                    "mode": 4
                }
            ]
        },
        {
            "primitives": [
                {
                    "attributes": {
                        "POSITION": 5,
                        "NORMAL": 6,
                        "TEXCOORD_0": 7
                    },
                    "indices": 4,
                    "material": 1,
                    "mode": 4
                }
            ]
        },
        {
            "primitives": [
                {
                    "attributes": {
                        "POSITION": 9,
                        "NORMAL": 10,
                        "TEXCOORD_0": 11
                    },
                    "indices": 8,
                    "mode": 4
                }
            ]
        },
        {
            "primitives": [
                {
                    "attributes": {
                        "POSITION": 13,
                        "NORMAL": 14,
                        "TEXCOORD_0": 15
                    },
                    "indices": 12,
                    "mode": 4
                }
            ]
        }
    ],
    "nodes": [
        {
            "mesh": 0,
            "name": "Wheel"
        },
        {
            "matrix": [
                1,
                0,
                0,
                0,
                0,
                1,
                0,
                0,
                0,
                0,
                1,
                0,
                0,
                0.3900001049041748,
                0,
                1
            ],
            "mesh": 1,
            "name": "Cover"
        },
        {
            "matrix": [
                1,
                0,
                0,
                0,
                0,
                1,
                0,
                0,
                0,
                0,
                1,
                0,
                0,
                3,
                0.5,
                1
            ],
            "mesh": 2,
            "name": "Head"
        },
        {
            "matrix": [
                1,
                0,
                0,
                0,
                0,
                1,
                0,
                0,
                0,
                0,
                1,
                0,
                0,
                3.5,
                -2,
                1
            ],
            "mesh": 3,
            "name": "Barrel"
        }
    ],
    "scene": 0,
    "scenes": [
        {
            "nodes": [
                0,
                1,
                2,
                3
            ]
        }
    ]
}